<?xml version="1.0" encoding="UTF-8"?>
<svg width="90px" height="90px" viewBox="0 0 90 90" version="1.1" xmlns="http://www.w3.org/2000/svg" xmlns:xlink="http://www.w3.org/1999/xlink">
    <!-- Generator: Sketch 48.1 (47250) - http://www.bohemiancoding.com/sketch -->
    <title>noun_592187_cc</title>
    <desc>Created with Sketch.</desc>
    <defs></defs>
    <g id="Wireframes-v.2" stroke="none" stroke-width="1" fill="none" fill-rule="evenodd">
        <g id="noun_592187_cc" transform="translate(0.000000, -1.000000)" fill="#000000" fill-rule="nonzero">
            <g id="Group" transform="translate(0.000000, 0.637820)">
                <path d="M45,0.36218 C20.18272,0.36218 0,20.54488 0,45.36218 C0,70.17948 20.18272,90.36218 45,90.36218 C61.210032,90.36218 75.636766,81.87873 83.5625,68.95593 C84.4321586,67.5408226 83.990923,65.6887149 82.5766368,64.8177216 C81.1623505,63.9467282 79.3098273,64.3862162 78.4375,65.79968 C71.593858,76.95818 59.109944,84.36218 45,84.36218 C23.42536,84.36218 6,66.93678 6,45.36218 C6,23.78752 23.42536,6.36218 45,6.36218 C57.966324,6.36218 69.436384,12.687461 76.53125,22.39343 L69.8125,20.45593 C68.7797499,20.1655617 67.6705405,20.4482448 66.9027358,21.197486 C66.1349311,21.9467272 65.825191,23.0486874 66.0902014,24.0882334 C66.3552118,25.1277794 67.1547073,25.9469633 68.1875,26.23718 L82.1875,30.23718 C83.7744296,30.6784327 85.4203616,29.7578267 85.875,28.17468 L89.875,14.17468 C90.1578934,13.2483849 89.9762356,12.2424977 89.3872115,11.4736662 C88.7981874,10.7048347 87.87425,10.2676293 86.90625,10.29968 C85.5933602,10.3505104 84.4662681,11.2496513 84.125,12.51843 L82.0625,19.73718 C73.922946,8.016723 60.320316,0.36218 45,0.36218 Z M44.96875,14.29968 C44.167611,14.3079318 43.4030499,14.6362605 42.8454025,15.2115178 C42.287755,15.7867752 41.983348,16.5611716 42,17.36218 L42,45.36218 C42.0098408,46.4882585 42.6494222,47.5140022 43.65625,48.01843 L63.65625,58.01843 C64.6213466,58.6045683 65.8338009,58.5992257 66.7936945,58.0046049 C67.7535881,57.4099842 68.2983517,56.3267915 68.2033688,55.201648 C68.1083858,54.0765045 67.3897427,53.0999667 66.34375,52.67468 L48,43.48718 L48,17.36218 C48.0168793,16.5503324 47.7039673,15.7663125 47.1327324,15.1891885 C46.5614974,14.6120645 45.7807281,14.291128 44.96875,14.29968 Z" id="Shape"></path>
            </g>
        </g>
    </g>
</svg>